<svg xmlns="http://www.w3.org/2000/svg" viewBox="0 0 1024 1024" role="img" aria-labelledby="title desc">
  <title id="title">Sif icon</title>
  <desc id="desc">Warm golden icon inspired by the Norse goddess Sif, using a braided S and wheat motif.</desc>
  <defs>
    <linearGradient id="bg" x1="0%" y1="0%" x2="100%" y2="100%">
      <stop offset="0%" stop-color="#f7f0de"/>
      <stop offset="100%" stop-color="#efe5cb"/>
    </linearGradient>
    <linearGradient id="gold" x1="12%" y1="10%" x2="88%" y2="92%">
      <stop offset="0%" stop-color="#f0c96a"/>
      <stop offset="55%" stop-color="#d59a38"/>
      <stop offset="100%" stop-color="#9f6720"/>
    </linearGradient>
    <linearGradient id="deep" x1="0%" y1="0%" x2="100%" y2="100%">
      <stop offset="0%" stop-color="#48301c"/>
      <stop offset="100%" stop-color="#2d1e12"/>
    </linearGradient>
    <filter id="shadow" x="-20%" y="-20%" width="140%" height="140%">
      <feDropShadow dx="0" dy="20" stdDeviation="24" flood-color="#7c5523" flood-opacity="0.18"/>
    </filter>
  </defs>

  <g filter="url(#shadow)">
    <circle cx="512" cy="512" r="400" fill="url(#gold)"/>
  </g>

  <g opacity="0.2" stroke="#fff5dd" stroke-width="26" stroke-linecap="round">
    <path d="M250 334c78-92 183-136 303-133"/>
    <path d="M772 688c-67 96-172 144-309 144"/>
  </g>

  <g fill="none" stroke-linecap="round" stroke-linejoin="round">
    <path d="M699 261c-58-52-126-79-216-79-134 0-230 68-230 161 0 81 60 127 179 155l161 39c101 24 152 67 152 136 0 107-104 183-252 183-108 0-203-31-272-96" stroke="url(#deep)" stroke-width="148"/>
    <path d="M699 261c-58-52-126-79-216-79-134 0-230 68-230 161 0 81 60 127 179 155l161 39c101 24 152 67 152 136 0 107-104 183-252 183-108 0-203-31-272-96" stroke="#fff4d2" stroke-width="88"/>
  </g>

  <g transform="translate(826 265) rotate(19)">
    <path d="M0 152c0-78 10-128 32-152 23 26 34 76 34 152 0 79-11 128-34 152C10 280 0 231 0 152Z" fill="#fff1ca"/>
    <path d="M18 16v268" stroke="#735126" stroke-width="18" stroke-linecap="round"/>
    <g fill="#fff6dd" stroke="#735126" stroke-width="10" stroke-linejoin="round">
      <path d="M18 50c58-6 82-36 86-58-51 6-79 25-86 58Z"/>
      <path d="M18 93c62 0 91-24 101-46-54 0-85 12-101 46Z"/>
      <path d="M18 138c66 2 100-18 113-39-58-4-91 4-113 39Z"/>
      <path d="M18 187c64 4 97-17 109-39-56-4-88 3-109 39Z"/>
      <path d="M18 50c-58-6-82-36-86-58 51 6 79 25 86 58Z"/>
      <path d="M18 93c-62 0-91-24-101-46 54 0 85 12 101 46Z"/>
      <path d="M18 138c-66 2-100-18-113-39 58-4 91 4 113 39Z"/>
      <path d="M18 187c-64 4-97-17-109-39 56-4 88 3 109 39Z"/>
    </g>
  </g>
</svg>
